<svg width="40" height="40" viewBox="0 0 40 40" fill="none" xmlns="http://www.w3.org/2000/svg">
<path d="M35.7143 0H4.28571C1.91964 0 0 1.91964 0 4.28571V35.7143C0 38.0804 1.91964 40 4.28571 40H35.7143C38.0804 40 40 38.0804 40 35.7143V4.28571C40 1.91964 38.0804 0 35.7143 0ZM8.21429 23.5714C7.625 23.5714 7.14286 23.0893 7.14286 22.5V17.5C7.14286 16.9107 7.625 16.4286 8.21429 16.4286H31.7857C32.375 16.4286 32.8571 16.9107 32.8571 17.5V22.5C32.8571 23.0893 32.375 23.5714 31.7857 23.5714H8.21429Z" fill="#CC4A4A"/>
</svg>
