<svg width="41" height="40" viewBox="0 0 41 40" fill="none" xmlns="http://www.w3.org/2000/svg">
<path d="M36.3761 0.742981H4.98254C2.6191 0.742981 0.701599 2.61177 0.701599 4.91517V35.5112C0.701599 37.8146 2.6191 39.6834 4.98254 39.6834H36.3761C38.7396 39.6834 40.6571 37.8146 40.6571 35.5112V4.91517C40.6571 2.61177 38.7396 0.742981 36.3761 0.742981ZM8.90674 23.69C8.31811 23.69 7.8365 23.2206 7.8365 22.647V17.7794C7.8365 17.2057 8.31811 16.7364 8.90674 16.7364H32.4519C33.0406 16.7364 33.5222 17.2057 33.5222 17.7794V22.647C33.5222 23.2206 33.0406 23.69 32.4519 23.69H8.90674Z" fill="#CC4A4A"/>
</svg>
