<svg width="40" height="41" viewBox="0 0 40 41" fill="none" xmlns="http://www.w3.org/2000/svg">
<path d="M35.7143 0.756226H4.28571C1.91964 0.756226 0 2.67587 0 5.04194V36.4705C0 38.8366 1.91964 40.7562 4.28571 40.7562H35.7143C38.0804 40.7562 40 38.8366 40 36.4705V5.04194C40 2.67587 38.0804 0.756226 35.7143 0.756226ZM32.8571 23.2562C32.8571 23.8455 32.375 24.3277 31.7857 24.3277H23.5714V32.5419C23.5714 33.1312 23.0893 33.6134 22.5 33.6134H17.5C16.9107 33.6134 16.4286 33.1312 16.4286 32.5419V24.3277H8.21429C7.625 24.3277 7.14286 23.8455 7.14286 23.2562V18.2562C7.14286 17.6669 7.625 17.1848 8.21429 17.1848H16.4286V8.97051C16.4286 8.38123 16.9107 7.89908 17.5 7.89908H22.5C23.0893 7.89908 23.5714 8.38123 23.5714 8.97051V17.1848H31.7857C32.375 17.1848 32.8571 17.6669 32.8571 18.2562V23.2562Z" fill="#CC4A4A"/>
</svg>
