<svg width="41" height="40" viewBox="0 0 41 40" fill="none" xmlns="http://www.w3.org/2000/svg">
<path d="M36.2336 0.74292H4.84002C2.47659 0.74292 0.559082 2.61171 0.559082 4.91511V35.5111C0.559082 37.8145 2.47659 39.6833 4.84002 39.6833H36.2336C38.597 39.6833 40.5145 37.8145 40.5145 35.5111V4.91511C40.5145 2.61171 38.597 0.74292 36.2336 0.74292ZM33.3796 22.6469C33.3796 23.2206 32.898 23.6899 32.3094 23.6899H24.1043V31.6866C24.1043 32.2603 23.6227 32.7297 23.034 32.7297H18.0396C17.451 32.7297 16.9694 32.2603 16.9694 31.6866V23.6899H8.76422C8.17559 23.6899 7.69399 23.2206 7.69399 22.6469V17.7793C7.69399 17.2057 8.17559 16.7363 8.76422 16.7363H16.9694V8.73961C16.9694 8.16594 17.451 7.69656 18.0396 7.69656H23.034C23.6227 7.69656 24.1043 8.16594 24.1043 8.73961V16.7363H32.3094C32.898 16.7363 33.3796 17.2057 33.3796 17.7793V22.6469Z" fill="#CC4A4A"/>
</svg>
