<svg width="40" height="41" viewBox="0 0 40 41" fill="none" xmlns="http://www.w3.org/2000/svg">
<path d="M35.7143 0.756226H4.28571C1.91964 0.756226 0 2.67587 0 5.04194V36.4705C0 38.8366 1.91964 40.7562 4.28571 40.7562H35.7143C38.0804 40.7562 40 38.8366 40 36.4705V5.04194C40 2.67587 38.0804 0.756226 35.7143 0.756226ZM8.21429 24.3277C7.625 24.3277 7.14286 23.8455 7.14286 23.2562V18.2562C7.14286 17.6669 7.625 17.1848 8.21429 17.1848H31.7857C32.375 17.1848 32.8571 17.6669 32.8571 18.2562V23.2562C32.8571 23.8455 32.375 24.3277 31.7857 24.3277H8.21429Z" fill="#CC4A4A"/>
</svg>
