<svg width="18" height="18" viewBox="0 0 18 18" fill="none" xmlns="http://www.w3.org/2000/svg">
<path d="M2.13231 3.67223C2.15464 3.39552 2.06905 3.11881 1.90531 2.93121L0.227 0.379885V0H5.44428L9.47819 11.148L13.0246 0H18V0.379885L16.5636 2.11516C16.4408 2.23241 16.3775 2.42939 16.4036 2.62168V15.3783C16.3775 15.5706 16.4408 15.7676 16.5636 15.8848L17.9665 17.6201V18H10.9072V17.6201L12.3622 15.8426C12.5036 15.6644 12.5036 15.6081 12.5036 15.3361V5.02762L8.45855 17.9672H7.91152L3.20777 5.02762V13.6993C3.16684 14.0651 3.26359 14.431 3.46827 14.6936L5.35869 17.5826V17.9625H0V17.5873L1.89043 14.6936C2.09138 14.431 2.18441 14.0604 2.13231 13.6993V3.67223Z" fill="black"/>
</svg>
