<svg width="41" height="40" viewBox="0 0 41 40" fill="none" xmlns="http://www.w3.org/2000/svg">
<path d="M36.3761 0.74292H4.98254C2.6191 0.74292 0.701599 2.61171 0.701599 4.91511V35.5111C0.701599 37.8145 2.6191 39.6833 4.98254 39.6833H36.3761C38.7396 39.6833 40.6571 37.8145 40.6571 35.5111V4.91511C40.6571 2.61171 38.7396 0.74292 36.3761 0.74292ZM8.90674 23.6899C8.31811 23.6899 7.8365 23.2206 7.8365 22.6469V17.7793C7.8365 17.2057 8.31811 16.7363 8.90674 16.7363H32.4519C33.0406 16.7363 33.5222 17.2057 33.5222 17.7793V22.6469C33.5222 23.2206 33.0406 23.6899 32.4519 23.6899H8.90674Z" fill="#CC4A4A"/>
</svg>
