<svg width="18" height="16" viewBox="0 0 18 16" fill="none" xmlns="http://www.w3.org/2000/svg">
<path d="M16.1498 3.98749C16.1612 4.16248 16.1612 4.33751 16.1612 4.5125C16.1612 9.84998 12.4493 16 5.66499 16C3.57488 16 1.63326 15.3375 0 14.1875C0.296966 14.225 0.582471 14.2375 0.890863 14.2375C2.61546 14.2375 4.20305 13.6 5.47083 12.5125C3.84899 12.475 2.48985 11.3125 2.02156 9.7125C2.25001 9.74997 2.47842 9.77498 2.71829 9.77498C3.0495 9.77498 3.38074 9.72497 3.6891 9.63751C1.99875 9.26248 0.730936 7.63749 0.730936 5.67499V5.62501C1.22204 5.92501 1.79315 6.11251 2.39844 6.13748C1.40478 5.41247 0.753788 4.17498 0.753788 2.77497C0.753788 2.02499 0.936496 1.33749 1.25631 0.737481C3.07232 3.18748 5.80203 4.78745 8.86293 4.96248C8.80583 4.66248 8.77155 4.35001 8.77155 4.03751C8.77155 1.81248 10.4162 0 12.4607 0C13.5228 0 14.4822 0.487499 15.1561 1.275C15.9898 1.10001 16.7893 0.762491 17.4975 0.300002C17.2233 1.23752 16.6409 2.02502 15.8756 2.52499C16.618 2.43753 17.3376 2.21248 18 1.90001C17.4975 2.69998 16.8693 3.41245 16.1498 3.98749Z" fill="black"/>
</svg>
