<svg width="53" height="47" viewBox="0 0 53 47" fill="none" xmlns="http://www.w3.org/2000/svg">
<path d="M46.0647 28.9907H19.6003L20.1911 31.8657H44.4233C45.8137 31.8657 46.8442 33.1506 46.5361 34.4998L46.038 36.6809C47.7254 37.496 48.8889 39.2175 48.8889 41.2095C48.8889 44.0128 46.5851 46.2806 43.759 46.2402C41.0666 46.2016 38.8524 44.0272 38.7797 41.3485C38.74 39.8852 39.329 38.5589 40.2966 37.6156H21.3701C22.3069 38.529 22.8889 39.8013 22.8889 41.2095C22.8889 44.0676 20.494 46.3693 17.5923 46.2351C15.0158 46.1161 12.9203 44.0443 12.7849 41.4809C12.6804 39.5013 13.7271 37.7564 15.3173 36.8462L8.97555 5.99072H2.66667C1.47003 5.99072 0.5 5.02534 0.5 3.83447V2.39697C0.5 1.2061 1.47003 0.240723 2.66667 0.240723H11.9228C12.952 0.240723 13.8392 0.961365 14.0455 1.96482L14.8729 5.99072H50.3324C51.7228 5.99072 52.7533 7.27558 52.4452 8.62485L48.1775 27.3123C47.9534 28.2941 47.0764 28.9907 46.0647 28.9907ZM37.3333 15.3345H33V11.7407C33 10.9468 32.3533 10.3032 31.5556 10.3032H30.1111C29.3133 10.3032 28.6667 10.9468 28.6667 11.7407V15.3345H24.3333C23.5356 15.3345 22.8889 15.978 22.8889 16.772V18.2095C22.8889 19.0034 23.5356 19.647 24.3333 19.647H28.6667V23.2407C28.6667 24.0347 29.3133 24.6782 30.1111 24.6782H31.5556C32.3533 24.6782 33 24.0347 33 23.2407V19.647H37.3333C38.1311 19.647 38.7778 19.0034 38.7778 18.2095V16.772C38.7778 15.978 38.1311 15.3345 37.3333 15.3345Z" fill="black"/>
</svg>
