<svg width="69" height="53" viewBox="0 0 69 53" fill="none" xmlns="http://www.w3.org/2000/svg">
<path d="M63.25 0H5.75C2.57552 0 0 2.54353 0 5.67857V47.3214C0 50.4565 2.57552 53 5.75 53H63.25C66.4245 53 69 50.4565 69 47.3214V5.67857C69 2.54353 66.4245 0 63.25 0ZM21.0833 11.3571C25.312 11.3571 28.75 14.7525 28.75 18.9286C28.75 23.1047 25.312 26.5 21.0833 26.5C16.8547 26.5 13.4167 23.1047 13.4167 18.9286C13.4167 14.7525 16.8547 11.3571 21.0833 11.3571ZM34.5 39.3714C34.5 40.6254 33.3021 41.6429 31.8167 41.6429H10.35C8.86458 41.6429 7.66667 40.6254 7.66667 39.3714V37.1C7.66667 33.3379 11.2724 30.2857 15.7167 30.2857H16.3156C17.7891 30.8891 19.3943 31.2321 21.0833 31.2321C22.7724 31.2321 24.3896 30.8891 25.851 30.2857H26.45C30.8943 30.2857 34.5 33.3379 34.5 37.1V39.3714ZM61.3333 33.125C61.3333 33.6455 60.9021 34.0714 60.375 34.0714H43.125C42.5979 34.0714 42.1667 33.6455 42.1667 33.125V31.2321C42.1667 30.7116 42.5979 30.2857 43.125 30.2857H60.375C60.9021 30.2857 61.3333 30.7116 61.3333 31.2321V33.125ZM61.3333 25.5536C61.3333 26.0741 60.9021 26.5 60.375 26.5H43.125C42.5979 26.5 42.1667 26.0741 42.1667 25.5536V23.6607C42.1667 23.1402 42.5979 22.7143 43.125 22.7143H60.375C60.9021 22.7143 61.3333 23.1402 61.3333 23.6607V25.5536ZM61.3333 17.9821C61.3333 18.5027 60.9021 18.9286 60.375 18.9286H43.125C42.5979 18.9286 42.1667 18.5027 42.1667 17.9821V16.0893C42.1667 15.5687 42.5979 15.1429 43.125 15.1429H60.375C60.9021 15.1429 61.3333 15.5687 61.3333 16.0893V17.9821Z" fill="black"/>
</svg>
