<svg width="67" height="62" viewBox="0 0 67 62" fill="none" xmlns="http://www.w3.org/2000/svg">
<path d="M60.7188 0H6.28125C2.81348 0 0 2.97545 0 6.64286V55.3571C0 59.0246 2.81348 62 6.28125 62H60.7188C64.1865 62 67 59.0246 67 55.3571V6.64286C67 2.97545 64.1865 0 60.7188 0ZM49.7789 40.2031C50.407 40.8674 50.407 41.9469 49.7789 42.6112L44.4791 48.2161C43.851 48.8804 42.8303 48.8804 42.2021 48.2161L33.5 38.9299L24.7979 48.2161C24.1697 48.8804 23.149 48.8804 22.5209 48.2161L17.2211 42.6112C16.593 41.9469 16.593 40.8674 17.2211 40.2031L26.0018 31L17.2211 21.7969C16.593 21.1326 16.593 20.0531 17.2211 19.3888L22.5209 13.7839C23.149 13.1196 24.1697 13.1196 24.7979 13.7839L33.5 23.0701L42.2021 13.7839C42.8303 13.1196 43.851 13.1196 44.4791 13.7839L49.7789 19.3888C50.407 20.0531 50.407 21.1326 49.7789 21.7969L40.9982 31L49.7789 40.2031Z" fill="#E81818"/>
</svg>
