<svg width="18" height="13" viewBox="0 0 18 13" fill="none" xmlns="http://www.w3.org/2000/svg">
<path d="M17.6239 2.03406C17.4169 1.23341 16.8069 0.602841 16.0325 0.388849C14.6288 0 9 0 9 0C9 0 3.37127 0 1.96752 0.388849C1.19308 0.602875 0.583143 1.23341 0.376127 2.03406C0 3.48529 0 6.51314 0 6.51314C0 6.51314 0 9.54098 0.376127 10.9922C0.583143 11.7929 1.19308 12.3972 1.96752 12.6112C3.37127 13 9 13 9 13C9 13 14.6287 13 16.0325 12.6112C16.8069 12.3972 17.4169 11.7929 17.6239 10.9922C18 9.54098 18 6.51314 18 6.51314C18 6.51314 18 3.48529 17.6239 2.03406ZM7.15908 9.2622V3.76408L11.8636 6.5132L7.15908 9.2622Z" fill="black"/>
</svg>
