<svg width="18" height="15" viewBox="0 0 18 15" fill="none" xmlns="http://www.w3.org/2000/svg">
<path d="M6.97875 10.3395C6.97875 11.1559 6.57 12.4918 5.6025 12.4918C4.635 12.4918 4.22625 11.1559 4.22625 10.3395C4.22625 9.52315 4.635 8.18726 5.6025 8.18726C6.57 8.18726 6.97875 9.52315 6.97875 10.3395ZM18 8.36694C18 9.613 17.88 10.9333 17.3438 12.0778C15.9225 15.0699 12.015 14.9996 9.2175 14.9996C6.375 14.9996 2.235 15.105 0.7575 12.0778C0.21 10.945 0 9.613 0 8.36694C0 6.73027 0.52125 5.18344 1.55625 3.92957C1.36125 3.3124 1.2675 2.66398 1.2675 2.02338C1.2675 1.18356 1.45125 0.761696 1.815 0C3.51375 0 4.60125 0.351552 5.895 1.40621C6.9825 1.13668 8.1 1.01559 9.22125 1.01559C10.2338 1.01559 11.2537 1.12887 12.2362 1.37496C13.5113 0.332021 14.5988 0 16.2788 0C16.6463 0.761696 16.8263 1.18356 16.8263 2.02338C16.8263 2.66398 16.7288 3.30068 16.5375 3.90613C17.5688 5.17172 18 6.73027 18 8.36694ZM15.5888 10.3395C15.5888 8.62474 14.5875 7.11307 12.8325 7.11307C12.1238 7.11307 11.445 7.24588 10.7325 7.34744C10.1738 7.43728 9.615 7.47243 9.04125 7.47243C8.47125 7.47243 7.9125 7.43728 7.35 7.34744C6.64875 7.24588 5.9625 7.11307 5.25 7.11307C3.495 7.11307 2.49375 8.62474 2.49375 10.3395C2.49375 13.7691 5.50875 14.2964 8.13375 14.2964H9.94125C12.5775 14.2964 15.5888 13.773 15.5888 10.3395ZM12.4913 8.18726C11.5238 8.18726 11.115 9.52315 11.115 10.3395C11.115 11.1559 11.5238 12.4918 12.4913 12.4918C13.4588 12.4918 13.8675 11.1559 13.8675 10.3395C13.8675 9.52315 13.4588 8.18726 12.4913 8.18726Z" fill="black"/>
</svg>
