<svg width="61" height="61" viewBox="0 0 61 61" fill="none" xmlns="http://www.w3.org/2000/svg">
<path d="M54.103 0H6.49236C2.90804 0 0 2.90804 0 6.49236V54.103C0 57.6874 2.90804 60.5954 6.49236 60.5954H54.103C57.6874 60.5954 60.5954 57.6874 60.5954 54.103V6.49236C60.5954 2.90804 57.6874 0 54.103 0ZM49.7748 34.0849C49.7748 34.9776 49.0444 35.708 48.1517 35.708H35.708V48.1517C35.708 49.0444 34.9776 49.7748 34.0849 49.7748H26.5105C25.6178 49.7748 24.8874 49.0444 24.8874 48.1517V35.708H12.4437C11.551 35.708 10.8206 34.9776 10.8206 34.0849V26.5105C10.8206 25.6178 11.551 24.8874 12.4437 24.8874H24.8874V12.4437C24.8874 11.551 25.6178 10.8206 26.5105 10.8206H34.0849C34.9776 10.8206 35.708 11.551 35.708 12.4437V24.8874H48.1517C49.0444 24.8874 49.7748 25.6178 49.7748 26.5105V34.0849Z" fill="#CC4A4A"/>
</svg>
