<svg width="52" height="46" viewBox="0 0 52 46" fill="none" xmlns="http://www.w3.org/2000/svg">
<path d="M45.5647 28.75H19.1003L19.6911 31.625H43.9233C45.3137 31.625 46.3442 32.9099 46.0361 34.2591L45.538 36.4402C47.2254 37.2553 48.3889 38.9767 48.3889 40.9687C48.3889 43.772 46.0851 46.0399 43.259 45.9995C40.5666 45.9609 38.3524 43.7865 38.2797 41.1077C38.24 39.6445 38.829 38.3182 39.7966 37.3749H20.8701C21.8069 38.2883 22.3889 39.5605 22.3889 40.9687C22.3889 43.8269 19.994 46.1286 17.0923 45.9944C14.5158 45.8754 12.4203 43.8036 12.2849 41.2402C12.1804 39.2606 13.2271 37.5157 14.8173 36.6055L8.47555 5.75H2.16667C0.970035 5.75 0 4.78462 0 3.59375V2.15625C0 0.965377 0.970035 0 2.16667 0H11.4228C12.452 0 13.3392 0.720643 13.5455 1.7241L14.3729 5.75H49.8324C51.2228 5.75 52.2533 7.03486 51.9452 8.38413L47.6775 27.0716C47.4534 28.0533 46.5764 28.75 45.5647 28.75ZM36.8333 15.0937H32.5V11.5C32.5 10.7061 31.8533 10.0625 31.0556 10.0625H29.6111C28.8133 10.0625 28.1667 10.7061 28.1667 11.5V15.0937H23.8333C23.0356 15.0937 22.3889 15.7373 22.3889 16.5312V17.9687C22.3889 18.7627 23.0356 19.4062 23.8333 19.4062H28.1667V23C28.1667 23.7939 28.8133 24.4375 29.6111 24.4375H31.0556C31.8533 24.4375 32.5 23.7939 32.5 23V19.4062H36.8333C37.6311 19.4062 38.2778 18.7627 38.2778 17.9687V16.5312C38.2778 15.7373 37.6311 15.0937 36.8333 15.0937Z" fill="black"/>
</svg>
