<svg width="41" height="40" viewBox="0 0 41 40" fill="none" xmlns="http://www.w3.org/2000/svg">
<path d="M36.2336 0.742981H4.84002C2.47659 0.742981 0.559082 2.61177 0.559082 4.91517V35.5112C0.559082 37.8146 2.47659 39.6834 4.84002 39.6834H36.2336C38.597 39.6834 40.5145 37.8146 40.5145 35.5112V4.91517C40.5145 2.61177 38.597 0.742981 36.2336 0.742981ZM33.3796 22.647C33.3796 23.2206 32.898 23.69 32.3094 23.69H24.1043V31.6867C24.1043 32.2604 23.6227 32.7297 23.034 32.7297H18.0396C17.451 32.7297 16.9694 32.2604 16.9694 31.6867V23.69H8.76422C8.17559 23.69 7.69399 23.2206 7.69399 22.647V17.7794C7.69399 17.2057 8.17559 16.7364 8.76422 16.7364H16.9694V8.73967C16.9694 8.166 17.451 7.69663 18.0396 7.69663H23.034C23.6227 7.69663 24.1043 8.166 24.1043 8.73967V16.7364H32.3094C32.898 16.7364 33.3796 17.2057 33.3796 17.7794V22.647Z" fill="#CC4A4A"/>
</svg>
