<svg width="61" height="61" viewBox="0 0 61 61" fill="none" xmlns="http://www.w3.org/2000/svg">
<path d="M54.103 0H6.49236C2.90804 0 0 2.90804 0 6.49236V54.103C0 57.6874 2.90804 60.5954 6.49236 60.5954H54.103C57.6874 60.5954 60.5954 57.6874 60.5954 54.103V6.49236C60.5954 2.90804 57.6874 0 54.103 0ZM12.4437 35.708C11.551 35.708 10.8206 34.9776 10.8206 34.0849V26.5105C10.8206 25.6178 11.551 24.8874 12.4437 24.8874H48.1517C49.0444 24.8874 49.7748 25.6178 49.7748 26.5105V34.0849C49.7748 34.9776 49.0444 35.708 48.1517 35.708H12.4437Z" fill="#CC4A4A"/>
</svg>
