<svg width="18" height="18" viewBox="0 0 18 18" fill="none" xmlns="http://www.w3.org/2000/svg">
<path d="M15.9928 6.8931C15.4237 6.8931 14.9229 7.14216 14.5549 7.5318C13.2005 6.53961 11.3757 5.90092 9.35359 5.83263L10.4045 0.81946L13.7507 1.61482C13.7507 2.48248 14.4184 3.18947 15.2378 3.18947C16.0725 3.18947 16.744 2.4624 16.744 1.59473C16.744 0.72707 16.0763 0 15.2378 0C14.6536 0 14.149 0.373577 13.8986 0.883731L10.2034 0.0160678C10.0175 -0.0361527 9.83541 0.104441 9.78609 0.301272L8.63277 5.82861C6.62583 5.91698 4.81996 6.55568 3.46177 7.54787C3.09377 7.14216 2.57401 6.8931 2.00493 6.8931C-0.104438 6.8931 -0.794916 9.88976 1.13615 10.9141C1.06786 11.2314 1.03751 11.5688 1.03751 11.9063C1.03751 15.2725 4.61889 18 9.01594 18C13.432 18 17.0133 15.2725 17.0133 11.9063C17.0133 11.5688 16.9792 11.2154 16.8957 10.898C18.7889 9.86967 18.0908 6.8931 15.9928 6.8931ZM4.19777 11.127C4.19777 10.2432 4.86549 9.53225 5.70393 9.53225C6.52339 9.53225 7.19111 10.2392 7.19111 11.127C7.19111 11.9946 6.52339 12.7016 5.70393 12.7016C4.86928 12.7056 4.19777 11.9946 4.19777 11.127ZM12.328 14.8828C10.947 16.345 7.05074 16.345 5.66978 14.8828C5.51803 14.7422 5.51803 14.4932 5.66978 14.3325C5.80256 14.1919 6.03778 14.1919 6.17057 14.3325C7.22525 15.4773 10.7232 15.4974 11.8234 14.3325C11.9562 14.1919 12.1914 14.1919 12.3242 14.3325C12.4797 14.4932 12.4797 14.7422 12.328 14.8828ZM12.2976 12.7056C11.4781 12.7056 10.8104 11.9987 10.8104 11.131C10.8104 10.2473 11.4781 9.53626 12.2976 9.53626C13.1323 9.53626 13.8038 10.2432 13.8038 11.131C13.8 11.9946 13.1323 12.7056 12.2976 12.7056Z" fill="black"/>
</svg>
